<svg version="1.1" xmlns="http://www.w3.org/2000/svg" viewBox="0 0 952.4552053607154 549.4195672977376" width="1904.9104107214307" height="1098.8391345954751">
  <!-- svg-source:excalidraw -->
  
  <defs>
    <style class="style-fonts">
      @font-face {
        font-family: "Virgil";
        src: url("https://excalidraw.com/Virgil.woff2");
      }
      @font-face {
        font-family: "Cascadia";
        src: url("https://excalidraw.com/Cascadia.woff2");
      }
      @font-face {
        font-family: "Assistant";
        src: url("https://excalidraw.com/Assistant-Regular.woff2");
      }
    </style>
    
  </defs>
  <rect x="0" y="0" width="952.4552053607154" height="549.4195672977376" fill="#ffffff"></rect><g stroke-linecap="round" transform="translate(10 294.20480481760353) rotate(0 22.845897737390032 22.84589773739009)"><path d="M45.69 22.85 C45.69 24.17, 45.57 25.51, 45.34 26.81 C45.12 28.12, 44.77 29.42, 44.31 30.66 C43.86 31.9, 43.29 33.12, 42.63 34.27 C41.97 35.41, 41.2 36.52, 40.35 37.53 C39.5 38.54, 38.54 39.5, 37.53 40.35 C36.52 41.2, 35.41 41.97, 34.27 42.63 C33.12 43.29, 31.9 43.86, 30.66 44.31 C29.42 44.77, 28.12 45.12, 26.81 45.34 C25.51 45.57, 24.17 45.69, 22.85 45.69 C21.52 45.69, 20.18 45.57, 18.88 45.34 C17.58 45.12, 16.27 44.77, 15.03 44.31 C13.79 43.86, 12.57 43.29, 11.42 42.63 C10.28 41.97, 9.17 41.2, 8.16 40.35 C7.15 39.5, 6.19 38.54, 5.34 37.53 C4.49 36.52, 3.72 35.41, 3.06 34.27 C2.4 33.12, 1.83 31.9, 1.38 30.66 C0.93 29.42, 0.58 28.12, 0.35 26.81 C0.12 25.51, 0 24.17, 0 22.85 C0 21.52, 0.12 20.18, 0.35 18.88 C0.58 17.58, 0.93 16.27, 1.38 15.03 C1.83 13.79, 2.4 12.57, 3.06 11.42 C3.72 10.28, 4.49 9.17, 5.34 8.16 C6.19 7.15, 7.15 6.19, 8.16 5.34 C9.17 4.49, 10.28 3.72, 11.42 3.06 C12.57 2.4, 13.79 1.83, 15.03 1.38 C16.27 0.93, 17.58 0.58, 18.88 0.35 C20.18 0.12, 21.52 0, 22.85 0 C24.17 0, 25.51 0.12, 26.81 0.35 C28.12 0.58, 29.42 0.93, 30.66 1.38 C31.9 1.83, 33.12 2.4, 34.27 3.06 C35.41 3.72, 36.52 4.49, 37.53 5.34 C38.54 6.19, 39.5 7.15, 40.35 8.16 C41.2 9.17, 41.97 10.28, 42.63 11.42 C43.29 12.57, 43.86 13.79, 44.31 15.03 C44.77 16.27, 45.12 17.58, 45.34 18.88 C45.57 20.18, 45.63 22.18, 45.69 22.85 C45.75 23.51, 45.75 22.18, 45.69 22.85" stroke="#1e1e1e" stroke-width="4" fill="none"></path></g><g transform="translate(27.35547102498731 307.6962133425907) rotate(0 5.3359375 9.199999999999989)"><text x="5.3359375" y="0" font-family="Helvetica, Segoe UI Emoji" font-size="16px" fill="#1e1e1e" text-anchor="middle" style="white-space: pre;" direction="ltr" dominant-baseline="text-before-edge">S</text></g><g stroke-linecap="round" transform="translate(247.22696497482002 286.10277123538344) rotate(0 58.83658423427937 25.334854039441325)"><path d="M12.67 0 C46.19 0, 79.71 0, 105.01 0 M12.67 0 C39.55 0, 66.43 0, 105.01 0 M105.01 0 C113.45 0, 117.67 4.22, 117.67 12.67 M105.01 0 C113.45 0, 117.67 4.22, 117.67 12.67 M117.67 12.67 C117.67 20.51, 117.67 28.36, 117.67 38 M117.67 12.67 C117.67 18.41, 117.67 24.16, 117.67 38 M117.67 38 C117.67 46.45, 113.45 50.67, 105.01 50.67 M117.67 38 C117.67 46.45, 113.45 50.67, 105.01 50.67 M105.01 50.67 C75.7 50.67, 46.4 50.67, 12.67 50.67 M105.01 50.67 C70.7 50.67, 36.4 50.67, 12.67 50.67 M12.67 50.67 C4.22 50.67, 0 46.45, 0 38 M12.67 50.67 C4.22 50.67, 0 46.45, 0 38 M0 38 C0 31.9, 0 25.8, 0 12.67 M0 38 C0 28.63, 0 19.26, 0 12.67 M0 12.67 C0 4.22, 4.22 0, 12.67 0 M0 12.67 C0 4.22, 4.22 0, 12.67 0" stroke="#000000" stroke-width="1" fill="none"></path></g><g transform="translate(285.1690179590996 302.2376252748247) rotate(0 20.89453125 9.199999999999989)"><text x="20.89453125" y="0" font-family="Helvetica, Segoe UI Emoji" font-size="16px" fill="#000000" text-anchor="middle" style="white-space: pre;" direction="ltr" dominant-baseline="text-before-edge">Fw. G</text></g><g stroke-linecap="round" transform="translate(596.9319075869757 295.47970361281216) rotate(0 21.436647644961795 21.436647644961738)"><path d="M27.5 5.5 C30.13 8.43, 32.77 11.37, 37.37 16.5 M27.5 5.5 C30.72 9.09, 33.94 12.67, 37.37 16.5 M37.37 16.5 C42.87 22, 42.87 22, 37.37 27.5 M37.37 16.5 C42.87 22, 42.87 22, 37.37 27.5 M37.37 27.5 C33.44 31.43, 29.51 35.36, 27.5 37.37 M37.37 27.5 C35.05 29.82, 32.73 32.14, 27.5 37.37 M27.5 37.37 C22 42.87, 22 42.87, 16.5 37.37 M27.5 37.37 C22 42.87, 22 42.87, 16.5 37.37 M16.5 37.37 C13.73 34.89, 10.97 32.41, 5.5 27.5 M16.5 37.37 C12.2 33.51, 7.89 29.65, 5.5 27.5 M5.5 27.5 C0 22, 0 22, 5.5 16.5 M5.5 27.5 C0 22, 0 22, 5.5 16.5 M5.5 16.5 C9.85 12.15, 14.2 7.8, 16.5 5.5 M5.5 16.5 C8.01 13.99, 10.52 11.48, 16.5 5.5 M16.5 5.5 C22 0, 22 0, 27.5 5.5 M16.5 5.5 C22 0, 22 0, 27.5 5.5" stroke="#000000" stroke-width="1" fill="none"></path></g><g stroke-linecap="round" transform="translate(828.7283916775691 311.43058978310387) rotate(0 56.86340684157312 21.15810503289316)"><path d="M10.58 0 C41.72 0, 72.87 0, 103.15 0 M10.58 0 C32.38 0, 54.18 0, 103.15 0 M103.15 0 C110.2 0, 113.73 3.53, 113.73 10.58 M103.15 0 C110.2 0, 113.73 3.53, 113.73 10.58 M113.73 10.58 C113.73 17, 113.73 23.41, 113.73 31.74 M113.73 10.58 C113.73 16.56, 113.73 22.54, 113.73 31.74 M113.73 31.74 C113.73 38.79, 110.2 42.32, 103.15 42.32 M113.73 31.74 C113.73 38.79, 110.2 42.32, 103.15 42.32 M103.15 42.32 C75.19 42.32, 47.23 42.32, 10.58 42.32 M103.15 42.32 C80.3 42.32, 57.46 42.32, 10.58 42.32 M10.58 42.32 C3.53 42.32, 0 38.79, 0 31.74 M10.58 42.32 C3.53 42.32, 0 38.79, 0 31.74 M0 31.74 C0 23.31, 0 14.88, 0 10.58 M0 31.74 C0 23.55, 0 15.37, 0 10.58 M0 10.58 C0 3.53, 3.53 0, 10.58 0 M0 10.58 C0 3.53, 3.53 0, 10.58 0" stroke="#000000" stroke-width="1" fill="none"></path></g><g transform="translate(865.1425797691422 323.38869481599704) rotate(0 20.44921875 9.199999999999989)"><text x="20.44921875" y="0" font-family="Helvetica, Segoe UI Emoji" font-size="16px" fill="#000000" text-anchor="middle" style="white-space: pre;" direction="ltr" dominant-baseline="text-before-edge">Fw. R</text></g><g stroke-linecap="round" transform="translate(641.707082451449 487.72006631733154) rotate(0 58.8293795039267 25.849750490203007)"><path d="M12.92 0 C34.23 0, 55.53 0, 104.73 0 M12.92 0 C32.19 0, 51.46 0, 104.73 0 M104.73 0 C113.35 0, 117.66 4.31, 117.66 12.92 M104.73 0 C113.35 0, 117.66 4.31, 117.66 12.92 M117.66 12.92 C117.66 21.37, 117.66 29.81, 117.66 38.77 M117.66 12.92 C117.66 21.53, 117.66 30.13, 117.66 38.77 M117.66 38.77 C117.66 47.39, 113.35 51.7, 104.73 51.7 M117.66 38.77 C117.66 47.39, 113.35 51.7, 104.73 51.7 M104.73 51.7 C76.13 51.7, 47.53 51.7, 12.92 51.7 M104.73 51.7 C68.25 51.7, 31.76 51.7, 12.92 51.7 M12.92 51.7 C4.31 51.7, 0 47.39, 0 38.77 M12.92 51.7 C4.31 51.7, 0 47.39, 0 38.77 M0 38.77 C0 30.42, 0 22.07, 0 12.92 M0 38.77 C0 28.56, 0 18.34, 0 12.92 M0 12.92 C0 4.31, 4.31 0, 12.92 0 M0 12.92 C0 4.31, 4.31 0, 12.92 0" stroke="#000000" stroke-width="1" fill="none"></path></g><g transform="translate(681.4153682053757 504.36981680753456) rotate(0 19.12109375 9.199999999999989)"><text x="19.12109375" y="0" font-family="Helvetica, Segoe UI Emoji" font-size="16px" fill="#000000" text-anchor="middle" style="white-space: pre;" direction="ltr" dominant-baseline="text-before-edge">Fw. L</text></g><g stroke-linecap="round"><g transform="translate(375.7916548734652 313.7607266046159) rotate(0 105.72385180848437 2.018350998750293)"><path d="M0 0 C35.24 0.67, 176.21 3.36, 211.45 4.04 M0 0 C35.24 0.67, 176.21 3.36, 211.45 4.04" stroke="#000000" stroke-width="1" fill="none"></path></g><g transform="translate(375.7916548734652 313.7607266046159) rotate(0 105.72385180848437 2.018350998750293)"><path d="M211.45 4.04 L197.73 10.12 L197.98 -2.56 L211.45 4.04" stroke="none" stroke-width="0" fill="#000000" fill-rule="evenodd"></path><path d="M211.45 4.04 C207.35 5.85, 203.25 7.67, 197.73 10.12 M211.45 4.04 C206.75 6.12, 202.06 8.2, 197.73 10.12 M197.73 10.12 C197.81 6.08, 197.89 2.05, 197.98 -2.56 M197.73 10.12 C197.81 6.3, 197.88 2.49, 197.98 -2.56 M197.98 -2.56 C201.85 -0.67, 205.71 1.23, 211.45 4.04 M197.98 -2.56 C200.76 -1.2, 203.53 0.16, 211.45 4.04 M211.45 4.04 C211.45 4.04, 211.45 4.04, 211.45 4.04 M211.45 4.04 C211.45 4.04, 211.45 4.04, 211.45 4.04" stroke="#000000" stroke-width="1" fill="none"></path></g></g><mask></mask><g mask="url(#mask-CwilQgWc1U_zdezNdMNPe)" stroke-linecap="round"><g transform="translate(646.1668785168104 318.54435815871943) rotate(0 84.71913303073802 3.7624217500619466)"><path d="M0 0 C28.24 1.25, 141.2 6.27, 169.44 7.52 M0 0 C28.24 1.25, 141.2 6.27, 169.44 7.52" stroke="#000000" stroke-width="1" fill="none"></path></g><g transform="translate(646.1668785168104 318.54435815871943) rotate(0 84.71913303073802 3.7624217500619466)"><path d="M169.44 7.52 L155.58 13.25 L156.14 0.59 L169.44 7.52" stroke="none" stroke-width="0" fill="#000000" fill-rule="evenodd"></path><path d="M169.44 7.52 C165.94 8.97, 162.45 10.41, 155.58 13.25 M169.44 7.52 C166.43 8.77, 163.42 10.01, 155.58 13.25 M155.58 13.25 C155.7 10.49, 155.82 7.72, 156.14 0.59 M155.58 13.25 C155.78 8.61, 155.99 3.96, 156.14 0.59 M156.14 0.59 C160.93 3.09, 165.71 5.58, 169.44 7.52 M156.14 0.59 C159.5 2.34, 162.87 4.1, 169.44 7.52 M169.44 7.52 C169.44 7.52, 169.44 7.52, 169.44 7.52 M169.44 7.52 C169.44 7.52, 169.44 7.52, 169.44 7.52" stroke="#000000" stroke-width="1" fill="none"></path></g></g><mask id="mask-CwilQgWc1U_zdezNdMNPe"><rect x="0" y="0" fill="#fff" width="915.6051445782864" height="426.0692016588433"></rect><rect x="693.3196052975482" y="313.1067799087814" fill="#000" width="75.1328125" height="18.4" opacity="1"></rect></mask><g transform="translate(693.3196052975482 313.1067799087814) rotate(0 37.56640625000023 9.199999999999989)"><text x="37.56640625" y="0" font-family="Helvetica, Segoe UI Emoji" font-size="16px" fill="#000000" text-anchor="middle" style="white-space: pre;" direction="ltr" dominant-baseline="text-before-edge">Nur FL &lt; x</text></g><g mask="url(#mask-v1tBP0awtcF0Gg59mT1Wg)" stroke-linecap="round"><g transform="translate(626.0200755375727 338.6601307922132) rotate(0 20.613923270896066 68.53913776628372)"><path d="M0 0 C6.87 22.85, 34.36 114.23, 41.23 137.08 M0 0 C6.87 22.85, 34.36 114.23, 41.23 137.08" stroke="#000000" stroke-width="1" fill="none"></path></g><g transform="translate(626.0200755375727 338.6601307922132) rotate(0 20.613923270896066 68.53913776628372)"><path d="M41.23 137.08 L31.24 125.89 L43.38 122.23 L41.23 137.08" stroke="none" stroke-width="0" fill="#000000" fill-rule="evenodd"></path><path d="M41.23 137.08 C39.06 134.65, 36.9 132.23, 31.24 125.89 M41.23 137.08 C38.01 133.48, 34.8 129.88, 31.24 125.89 M31.24 125.89 C34.48 124.91, 37.73 123.94, 43.38 122.23 M31.24 125.89 C35.99 124.46, 40.74 123.03, 43.38 122.23 M43.38 122.23 C42.67 127.12, 41.96 132, 41.23 137.08 M43.38 122.23 C42.67 127.16, 41.95 132.09, 41.23 137.08 M41.23 137.08 C41.23 137.08, 41.23 137.08, 41.23 137.08 M41.23 137.08 C41.23 137.08, 41.23 137.08, 41.23 137.08" stroke="#000000" stroke-width="1" fill="none"></path></g></g><mask id="mask-v1tBP0awtcF0Gg59mT1Wg"><rect x="0" y="0" fill="#fff" width="767.2479220793648" height="575.7384063247806"></rect><rect x="607.7394675584687" y="397.99926855849674" fill="#000" width="77.7890625" height="18.4" opacity="1"></rect></mask><g transform="translate(607.7394675584687 397.99926855849685) rotate(0 38.89453125 9.200000000000045)"><text x="38.89453125" y="0" font-family="Helvetica, Segoe UI Emoji" font-size="16px" fill="#000000" text-anchor="middle" style="white-space: pre;" direction="ltr" dominant-baseline="text-before-edge">Nur FR &lt; x</text></g><g stroke-linecap="round"><g transform="translate(649.8030741486882 477.59679157078926) rotate(0 -14.837921681646321 -62.767090047550255)"><path d="M0 0 C-4.24 -17.67, -20.47 -85.07, -25.41 -105.99 C-30.36 -126.91, -28.97 -122.28, -29.68 -125.53 M0 0 C-4.24 -17.67, -20.47 -85.07, -25.41 -105.99 C-30.36 -126.91, -28.97 -122.28, -29.68 -125.53" stroke="#000000" stroke-width="1" fill="none"></path></g><g transform="translate(649.8030741486882 477.59679157078926) rotate(0 -14.837921681646321 -62.767090047550255)"><path d="M-29.68 -125.53 L-23.94 -117.34 L-32.27 -115.87 L-29.68 -125.53" stroke="none" stroke-width="0" fill="#000000" fill-rule="evenodd"></path><path d="M-29.68 -125.53 C-27.87 -122.96, -26.07 -120.39, -23.94 -117.34 M-29.68 -125.53 C-27.84 -122.91, -26 -120.28, -23.94 -117.34 M-23.94 -117.34 C-26.18 -116.95, -28.42 -116.55, -32.27 -115.87 M-23.94 -117.34 C-25.77 -117.02, -27.59 -116.7, -32.27 -115.87 M-32.27 -115.87 C-31.54 -118.58, -30.82 -121.28, -29.68 -125.53 M-32.27 -115.87 C-31.74 -117.84, -31.21 -119.8, -29.68 -125.53 M-29.68 -125.53 C-29.68 -125.53, -29.68 -125.53, -29.68 -125.53 M-29.68 -125.53 C-29.68 -125.53, -29.68 -125.53, -29.68 -125.53" stroke="#000000" stroke-width="1" fill="none"></path></g></g><mask></mask><g stroke-linecap="round"><g transform="translate(890.825453946889 299.8807836461625) rotate(0 -123.46279471812113 -1.1333934323459403)"><path d="M0 0 C-8.88 -1.55, -12.12 -10.46, -53.27 -9.29 C-94.43 -8.12, -214.65 4.31, -246.93 7.03 M0 0 C-8.88 -1.55, -12.12 -10.46, -53.27 -9.29 C-94.43 -8.12, -214.65 4.31, -246.93 7.03" stroke="#1e1e1e" stroke-width="1" fill="none"></path></g><g transform="translate(890.825453946889 299.8807836461625) rotate(0 -123.46279471812113 -1.1333934323459403)"><path d="M-246.93 7.03 L-233.98 -0.55 L-232.8 12.08 L-246.93 7.03" stroke="none" stroke-width="0" fill="#1e1e1e" fill-rule="evenodd"></path><path d="M-246.93 7.03 C-243.08 4.78, -239.23 2.53, -233.98 -0.55 M-246.93 7.03 C-242.69 4.55, -238.46 2.07, -233.98 -0.55 M-233.98 -0.55 C-233.54 4.17, -233.1 8.88, -232.8 12.08 M-233.98 -0.55 C-233.63 3.18, -233.28 6.9, -232.8 12.08 M-232.8 12.08 C-236.88 10.62, -240.95 9.16, -246.93 7.03 M-232.8 12.08 C-237.97 10.23, -243.14 8.38, -246.93 7.03 M-246.93 7.03 C-246.93 7.03, -246.93 7.03, -246.93 7.03 M-246.93 7.03 C-246.93 7.03, -246.93 7.03, -246.93 7.03" stroke="#1e1e1e" stroke-width="1" fill="none"></path></g></g><mask></mask><g mask="url(#mask-jUTvMTW1W51qpp6qlATaK)" stroke-linecap="round"><g transform="translate(602.8667189266475 335.52975936690746) rotate(0 -112.59308374971852 -2.7070916746691864)"><path d="M0 0 C-37.53 -0.9, -187.66 -4.51, -225.19 -5.41 M0 0 C-37.53 -0.9, -187.66 -4.51, -225.19 -5.41" stroke="#1e1e1e" stroke-width="1" fill="none"></path></g><g transform="translate(602.8667189266475 335.52975936690746) rotate(0 -112.59308374971852 -2.7070916746691864)"><path d="M-225.19 -5.41 L-211.44 -11.42 L-211.75 1.25 L-225.19 -5.41" stroke="none" stroke-width="0" fill="#1e1e1e" fill-rule="evenodd"></path><path d="M-225.19 -5.41 C-219.81 -7.76, -214.44 -10.11, -211.44 -11.42 M-225.19 -5.41 C-222.32 -6.67, -219.46 -7.92, -211.44 -11.42 M-211.44 -11.42 C-211.56 -6.6, -211.67 -1.78, -211.75 1.25 M-211.44 -11.42 C-211.53 -7.83, -211.62 -4.23, -211.75 1.25 M-211.75 1.25 C-214.94 -0.33, -218.14 -1.92, -225.19 -5.41 M-211.75 1.25 C-215.59 -0.65, -219.43 -2.56, -225.19 -5.41 M-225.19 -5.41 C-225.19 -5.41, -225.19 -5.41, -225.19 -5.41 M-225.19 -5.41 C-225.19 -5.41, -225.19 -5.41, -225.19 -5.41" stroke="#1e1e1e" stroke-width="1" fill="none"></path></g></g><mask id="mask-jUTvMTW1W51qpp6qlATaK"><rect x="0" y="0" fill="#fff" width="928.0528864260846" height="440.94394271624583"></rect><rect x="447.375197676929" y="323.62266769223834" fill="#000" width="85.796875" height="18.4" opacity="1"></rect></mask><g transform="translate(447.375197676929 323.6226676922381) rotate(0 42.8984375 9.200000000000045)"><text x="42.8984375" y="0" font-family="Helvetica, Segoe UI Emoji" font-size="16px" fill="#1e1e1e" text-anchor="middle" style="white-space: pre;" direction="ltr" dominant-baseline="text-before-edge">FR &amp; FL &gt; x</text></g><g stroke-linecap="round" transform="translate(198.21260413689924 10) rotate(0 74.58612478584837 21.532642214983355)"><path d="M10.77 0 C43.52 0, 76.27 0, 138.41 0 M10.77 0 C39.9 0, 69.04 0, 138.41 0 M138.41 0 C145.58 0, 149.17 3.59, 149.17 10.77 M138.41 0 C145.58 0, 149.17 3.59, 149.17 10.77 M149.17 10.77 C149.17 16.62, 149.17 22.48, 149.17 32.3 M149.17 10.77 C149.17 16.08, 149.17 21.39, 149.17 32.3 M149.17 32.3 C149.17 39.48, 145.58 43.07, 138.41 43.07 M149.17 32.3 C149.17 39.48, 145.58 43.07, 138.41 43.07 M138.41 43.07 C96.35 43.07, 54.3 43.07, 10.77 43.07 M138.41 43.07 C104.5 43.07, 70.6 43.07, 10.77 43.07 M10.77 43.07 C3.59 43.07, 0 39.48, 0 32.3 M10.77 43.07 C3.59 43.07, 0 39.48, 0 32.3 M0 32.3 C0 27.25, 0 22.2, 0 10.77 M0 32.3 C0 25.24, 0 18.19, 0 10.77 M0 10.77 C0 3.59, 3.59 0, 10.77 0 M0 10.77 C0 3.59, 3.59 0, 10.77 0" stroke="#1e1e1e" stroke-width="1" fill="none"></path></g><g transform="translate(252.7870101727476 22.332642214983366) rotate(0 20.01171875 9.199999999999989)"><text x="20.01171875" y="0" font-family="Helvetica, Segoe UI Emoji" font-size="16px" fill="#1e1e1e" text-anchor="middle" style="white-space: pre;" direction="ltr" dominant-baseline="text-before-edge">Rw. L</text></g><g stroke-linecap="round" transform="translate(320.11852751087326 83.84870371035981) rotate(0 72.91308001932225 22.91222719283752)"><path d="M11.46 0 C57.52 0, 103.58 0, 134.37 0 M11.46 0 C42.22 0, 72.98 0, 134.37 0 M134.37 0 C142.01 0, 145.83 3.82, 145.83 11.46 M134.37 0 C142.01 0, 145.83 3.82, 145.83 11.46 M145.83 11.46 C145.83 20.26, 145.83 29.06, 145.83 34.37 M145.83 11.46 C145.83 20.24, 145.83 29.02, 145.83 34.37 M145.83 34.37 C145.83 42.01, 142.01 45.82, 134.37 45.82 M145.83 34.37 C145.83 42.01, 142.01 45.82, 134.37 45.82 M134.37 45.82 C87.79 45.82, 41.21 45.82, 11.46 45.82 M134.37 45.82 C96.98 45.82, 59.58 45.82, 11.46 45.82 M11.46 45.82 C3.82 45.82, 0 42.01, 0 34.37 M11.46 45.82 C3.82 45.82, 0 42.01, 0 34.37 M0 34.37 C0 27.35, 0 20.33, 0 11.46 M0 34.37 C0 26.03, 0 17.69, 0 11.46 M0 11.46 C0 3.82, 3.82 0, 11.46 0 M0 11.46 C0 3.82, 3.82 0, 11.46 0" stroke="#1e1e1e" stroke-width="1" fill="none"></path></g><g transform="translate(371.6917637801953 97.56093090319735) rotate(0 21.33984375 9.199999999999989)"><text x="21.33984375" y="0" font-family="Helvetica, Segoe UI Emoji" font-size="16px" fill="#1e1e1e" text-anchor="middle" style="white-space: pre;" direction="ltr" dominant-baseline="text-before-edge">Rw. R</text></g><g mask="url(#mask--ZZgRvzZZ_JkiGxABcq5h)" stroke-linecap="round"><g transform="translate(264.3573362799352 64.31327077389051) rotate(0 0.523100003422087 105.80724352365735)"><path d="M0 0 C0.17 35.27, 0.87 176.35, 1.05 211.61 M0 0 C0.17 35.27, 0.87 176.35, 1.05 211.61" stroke="#1e1e1e" stroke-width="1" fill="none"></path></g><g transform="translate(264.3573362799352 64.31327077389051) rotate(0 0.523100003422087 105.80724352365735)"><path d="M1.05 211.61 L-5.36 198.05 L7.32 197.99 L1.05 211.61" stroke="none" stroke-width="0" fill="#1e1e1e" fill-rule="evenodd"></path><path d="M1.05 211.61 C-0.45 208.44, -1.96 205.26, -5.36 198.05 M1.05 211.61 C-1.51 206.19, -4.08 200.77, -5.36 198.05 M-5.36 198.05 C-0.6 198.03, 4.17 198, 7.32 197.99 M-5.36 198.05 C-1.95 198.03, 1.46 198.02, 7.32 197.99 M7.32 197.99 C6.05 200.74, 4.79 203.49, 1.05 211.61 M7.32 197.99 C4.96 203.12, 2.6 208.25, 1.05 211.61 M1.05 211.61 C1.05 211.61, 1.05 211.61, 1.05 211.61 M1.05 211.61 C1.05 211.61, 1.05 211.61, 1.05 211.61" stroke="#1e1e1e" stroke-width="1" fill="none"></path></g></g><mask id="mask--ZZgRvzZZ_JkiGxABcq5h"><rect x="0" y="0" fill="#fff" width="365.4035362867794" height="375.9277578212052"></rect><rect x="241.53668628335708" y="160.9205142975478" fill="#000" width="46.6875" height="18.4" opacity="1"></rect></mask><g transform="translate(241.53668628335708 160.9205142975478) rotate(0 23.343750000000227 9.200000000000045)"><text x="23.34375" y="0" font-family="Helvetica, Segoe UI Emoji" font-size="16px" fill="#1e1e1e" text-anchor="middle" style="white-space: pre;" direction="ltr" dominant-baseline="text-before-edge">HL &lt; x</text></g><g stroke-linecap="round"><g transform="translate(65.9649431188318 317.79137542991975) rotate(0 84.39957195026614 -1.4921770223298836)"><path d="M0 0 C28.13 -0.5, 140.67 -2.49, 168.8 -2.98 M0 0 C28.13 -0.5, 140.67 -2.49, 168.8 -2.98" stroke="#1e1e1e" stroke-width="1" fill="none"></path></g><g transform="translate(65.9649431188318 317.79137542991975) rotate(0 84.39957195026614 -1.4921770223298836)"><path d="M168.8 -2.98 L155.32 3.59 L155.09 -9.08 L168.8 -2.98" stroke="none" stroke-width="0" fill="#1e1e1e" fill-rule="evenodd"></path><path d="M168.8 -2.98 C165.3 -1.28, 161.81 0.43, 155.32 3.59 M168.8 -2.98 C166.06 -1.65, 163.32 -0.31, 155.32 3.59 M155.32 3.59 C155.26 0.36, 155.2 -2.88, 155.09 -9.08 M155.32 3.59 C155.27 0.92, 155.22 -1.75, 155.09 -9.08 M155.09 -9.08 C158.94 -7.37, 162.79 -5.66, 168.8 -2.98 M155.09 -9.08 C158.29 -7.66, 161.48 -6.24, 168.8 -2.98 M168.8 -2.98 C168.8 -2.98, 168.8 -2.98, 168.8 -2.98 M168.8 -2.98 C168.8 -2.98, 168.8 -2.98, 168.8 -2.98" stroke="#1e1e1e" stroke-width="1" fill="none"></path></g></g><mask></mask><g stroke-linecap="round" transform="translate(603.7976771360791 46.518844003350466) rotate(0 20.9653301420567 20.965330142056615)"><path d="M26.25 5.25 C29.89 8.91, 33.53 12.58, 36.68 15.75 M26.25 5.25 C28.71 7.72, 31.17 10.2, 36.68 15.75 M36.68 15.75 C41.93 21, 41.93 21, 36.68 26.25 M36.68 15.75 C41.93 21, 41.93 21, 36.68 26.25 M36.68 26.25 C34.52 28.41, 32.36 30.57, 26.25 36.68 M36.68 26.25 C34.31 28.62, 31.94 30.99, 26.25 36.68 M26.25 36.68 C21 41.93, 21 41.93, 15.75 36.68 M26.25 36.68 C21 41.93, 21 41.93, 15.75 36.68 M15.75 36.68 C12.77 33.72, 9.79 30.76, 5.25 26.25 M15.75 36.68 C13.64 34.58, 11.53 32.49, 5.25 26.25 M5.25 26.25 C0 21, 0 21, 5.25 15.75 M5.25 26.25 C0 21, 0 21, 5.25 15.75 M5.25 15.75 C7.82 13.18, 10.4 10.6, 15.75 5.25 M5.25 15.75 C7.38 13.62, 9.51 11.49, 15.75 5.25 M15.75 5.25 C21 0, 21 0, 26.25 5.25 M15.75 5.25 C21 0, 21 0, 26.25 5.25" stroke="#1e1e1e" stroke-width="1" fill="none"></path></g><g mask="url(#mask---MHJmjIg2ByR6mWPO1xY)" stroke-linecap="round"><g transform="translate(622.6605589498135 288.4589555336904) rotate(0 1.119043460033481 -94.95893734764104)"><path d="M0 0 C0.37 -31.65, 1.87 -158.26, 2.24 -189.92 M0 0 C0.37 -31.65, 1.87 -158.26, 2.24 -189.92" stroke="#1e1e1e" stroke-width="1" fill="none"></path></g><g transform="translate(622.6605589498135 288.4589555336904) rotate(0 1.119043460033481 -94.95893734764104)"><path d="M2.24 -189.92 L8.42 -176.25 L-4.26 -176.4 L2.24 -189.92" stroke="none" stroke-width="0" fill="#1e1e1e" fill-rule="evenodd"></path><path d="M2.24 -189.92 C4.49 -184.93, 6.74 -179.95, 8.42 -176.25 M2.24 -189.92 C3.92 -186.19, 5.61 -182.46, 8.42 -176.25 M8.42 -176.25 C3.64 -176.31, -1.13 -176.36, -4.26 -176.4 M8.42 -176.25 C5.47 -176.28, 2.52 -176.32, -4.26 -176.4 M-4.26 -176.4 C-2.36 -180.36, -0.45 -184.32, 2.24 -189.92 M-4.26 -176.4 C-2.21 -180.66, -0.16 -184.92, 2.24 -189.92 M2.24 -189.92 C2.24 -189.92, 2.24 -189.92, 2.24 -189.92 M2.24 -189.92 C2.24 -189.92, 2.24 -189.92, 2.24 -189.92" stroke="#1e1e1e" stroke-width="1" fill="none"></path></g></g><mask id="mask---MHJmjIg2ByR6mWPO1xY"><rect x="0" y="0" fill="#fff" width="724.8986458698805" height="578.3768302289725"></rect><rect x="562.428039909847" y="184.30001818604933" fill="#000" width="122.703125" height="18.4" opacity="1"></rect></mask><g transform="translate(562.428039909847 184.30001818604933) rotate(0 61.3515625 9.200000000000045)"><text x="61.3515625" y="0" font-family="Helvetica, Segoe UI Emoji" font-size="16px" fill="#1e1e1e" text-anchor="middle" style="white-space: pre;" direction="ltr" dominant-baseline="text-before-edge">FR &lt; x &amp;&amp; FL &lt; x</text></g><g mask="url(#mask-H7hQyL_98KvTmWyoD1oa4)" stroke-linecap="round"><g transform="translate(603.5803471806762 81.1267600268045) rotate(0 -63.55436328463588 3.7313986115673856)"><path d="M0 0 C-21.18 1.24, -105.92 6.22, -127.11 7.46 M0 0 C-21.18 1.24, -105.92 6.22, -127.11 7.46" stroke="#1e1e1e" stroke-width="1" fill="none"></path></g><g transform="translate(603.5803471806762 81.1267600268045) rotate(0 -63.55436328463588 3.7313986115673856)"><path d="M-127.11 7.46 L-113.91 0.34 L-113.17 12.99 L-127.11 7.46" stroke="none" stroke-width="0" fill="#1e1e1e" fill-rule="evenodd"></path><path d="M-127.11 7.46 C-122.45 4.95, -117.79 2.43, -113.91 0.34 M-127.11 7.46 C-123.81 5.68, -120.51 3.9, -113.91 0.34 M-113.91 0.34 C-113.69 4.04, -113.47 7.74, -113.17 12.99 M-113.91 0.34 C-113.62 5.18, -113.34 10.02, -113.17 12.99 M-113.17 12.99 C-118.53 10.87, -123.89 8.74, -127.11 7.46 M-113.17 12.99 C-115.98 11.88, -118.79 10.76, -127.11 7.46 M-127.11 7.46 C-127.11 7.46, -127.11 7.46, -127.11 7.46 M-127.11 7.46 C-127.11 7.46, -127.11 7.46, -127.11 7.46" stroke="#1e1e1e" stroke-width="1" fill="none"></path></g></g><mask id="mask-H7hQyL_98KvTmWyoD1oa4"><rect x="0" y="0" fill="#fff" width="830.689073749948" height="188.58955724993928"></rect><rect x="504.4556713960401" y="75.65815863837179" fill="#000" width="71.140625" height="18.4" opacity="1"></rect></mask><g transform="translate(504.4556713960401 75.65815863837184) rotate(0 35.57031250000023 9.200000000000045)"><text x="35.5703125" y="0" font-family="Helvetica, Segoe UI Emoji" font-size="16px" fill="#1e1e1e" text-anchor="middle" style="white-space: pre;" direction="ltr" dominant-baseline="text-before-edge">HR &lt;= HL</text></g><g mask="url(#mask-rhz2FS9PcTr_UR0WCujfq)" stroke-linecap="round"><g transform="translate(613.2045889283995 46.80230032632181) rotate(0 -128.38447493202943 -2.795090015850917)"><path d="M0 0 C-42.79 -0.93, -213.97 -4.66, -256.77 -5.59 M0 0 C-42.79 -0.93, -213.97 -4.66, -256.77 -5.59" stroke="#1e1e1e" stroke-width="1" fill="none"></path></g><g transform="translate(613.2045889283995 46.80230032632181) rotate(0 -128.38447493202943 -2.795090015850917)"><path d="M-256.77 -5.59 L-243.04 -11.63 L-243.32 1.04 L-256.77 -5.59" stroke="none" stroke-width="0" fill="#1e1e1e" fill-rule="evenodd"></path><path d="M-256.77 -5.59 C-251.63 -7.85, -246.49 -10.11, -243.04 -11.63 M-256.77 -5.59 C-252.41 -7.51, -248.06 -9.42, -243.04 -11.63 M-243.04 -11.63 C-243.13 -7.31, -243.23 -2.99, -243.32 1.04 M-243.04 -11.63 C-243.13 -7.3, -243.23 -2.96, -243.32 1.04 M-243.32 1.04 C-247.17 -0.86, -251.03 -2.76, -256.77 -5.59 M-243.32 1.04 C-247.2 -0.87, -251.08 -2.79, -256.77 -5.59 M-256.77 -5.59 C-256.77 -5.59, -256.77 -5.59, -256.77 -5.59 M-256.77 -5.59 C-256.77 -5.59, -256.77 -5.59, -256.77 -5.59" stroke="#1e1e1e" stroke-width="1" fill="none"></path></g></g><mask id="mask-rhz2FS9PcTr_UR0WCujfq"><rect x="0" y="0" fill="#fff" width="969.9735387924584" height="152.39248035802365"></rect><rect x="453.9216764963703" y="34.80721031047091" fill="#000" width="61.796875" height="18.4" opacity="1"></rect></mask><g transform="translate(453.9216764963703 34.80721031047091) rotate(0 30.898437499999773 9.199999999999989)"><text x="30.8984375" y="0" font-family="Helvetica, Segoe UI Emoji" font-size="16px" fill="#1e1e1e" text-anchor="middle" style="white-space: pre;" direction="ltr" dominant-baseline="text-before-edge">HL &lt; HR</text></g><g mask="url(#mask-zORNeBbKzqt2O7Mko9ON1)" stroke-linecap="round"><g transform="translate(326.7740059706821 142.39530963640595) rotate(0 -0.6255785163853034 66.36859792545334)"><path d="M0 0 C-0.21 22.12, -1.04 110.61, -1.25 132.74 M0 0 C-0.21 22.12, -1.04 110.61, -1.25 132.74" stroke="#1e1e1e" stroke-width="1" fill="none"></path></g><g transform="translate(326.7740059706821 142.39530963640595) rotate(0 -0.6255785163853034 66.36859792545334)"><path d="M-1.25 132.74 L-7.46 119.08 L5.22 119.2 L-1.25 132.74" stroke="none" stroke-width="0" fill="#1e1e1e" fill-rule="evenodd"></path><path d="M-1.25 132.74 C-3.64 127.5, -6.02 122.26, -7.46 119.08 M-1.25 132.74 C-2.67 129.62, -4.09 126.49, -7.46 119.08 M-7.46 119.08 C-3.89 119.12, -0.31 119.15, 5.22 119.2 M-7.46 119.08 C-3.08 119.12, 1.31 119.17, 5.22 119.2 M5.22 119.2 C3.49 122.81, 1.77 126.41, -1.25 132.74 M5.22 119.2 C2.8 124.26, 0.38 129.32, -1.25 132.74 M-1.25 132.74 C-1.25 132.74, -1.25 132.74, -1.25 132.74 M-1.25 132.74 C-1.25 132.74, -1.25 132.74, -1.25 132.74" stroke="#1e1e1e" stroke-width="1" fill="none"></path></g></g><mask id="mask-zORNeBbKzqt2O7Mko9ON1"><rect x="0" y="0" fill="#fff" width="428.0251630034527" height="375.13250548731264"></rect><rect x="301.4765524542968" y="199.5639075618592" fill="#000" width="49.34375" height="18.4" opacity="1"></rect></mask><g transform="translate(301.4765524542968 199.5639075618592) rotate(0 24.671875 9.200000000000102)"><text x="24.671875" y="0" font-family="Helvetica, Segoe UI Emoji" font-size="16px" fill="#1e1e1e" text-anchor="middle" style="white-space: pre;" direction="ltr" dominant-baseline="text-before-edge">HR &lt; x</text></g></svg>